<svg viewBox="0 0 200 320" fill="none" xmlns="http://www.w3.org/2000/svg">
  <!-- Mascot — wave pose. Style: Comic Testival (landr-branding/design-direction). -->
  <!-- bg / harness -->
  <path d="M140 165 Q160 170 162 200 Q160 225 145 230 L142 230 L142 165 Z" fill="#5DA53C" stroke="#2B1A0F" stroke-width="2" stroke-linejoin="round"/>
  <path d="M148 170 Q158 175 159 200 Q157 218 148 224" fill="#2E6B3E" opacity="0.4"/>
  <rect x="141" y="188" width="12" height="8" rx="2" fill="#F7B32B" stroke="#2B1A0F" stroke-width="1.5"/>
  <!-- body (shirt) -->
  <path d="M60 155 Q55 210 58 240 L142 240 Q145 210 140 155 Z" fill="#C4502A" stroke="#2B1A0F" stroke-width="2.5" stroke-linejoin="round"/>
  <path d="M70 160 Q67 195 68 225 L88 225 Q87 195 88 160 Z" fill="#8B3118" opacity="0.6"/>
  <path d="M85 155 Q100 165 115 155" fill="none" stroke="#2B1A0F" stroke-width="2" stroke-linecap="round"/>
  <!-- right arm down -->
  <path d="M138 170 Q152 185 148 210" stroke="#E8A87C" stroke-width="14" fill="none" stroke-linecap="round"/>
  <path d="M138 170 Q152 185 148 210" stroke="#C87A4A" stroke-width="5" fill="none" stroke-linecap="round" opacity="0.3"/>
  <path d="M138 170 Q152 185 148 210" stroke="#2B1A0F" stroke-width="2" fill="none" stroke-linecap="round"/>
  <!-- left arm raised / waving -->
  <path d="M62 168 Q42 140 50 115" stroke="#E8A87C" stroke-width="14" fill="none" stroke-linecap="round"/>
  <path d="M62 168 Q42 140 50 115" stroke="#C87A4A" stroke-width="5" fill="none" stroke-linecap="round" opacity="0.3"/>
  <path d="M62 168 Q42 140 50 115" stroke="#2B1A0F" stroke-width="2" fill="none" stroke-linecap="round"/>
  <!-- waving hand -->
  <ellipse cx="51" cy="110" rx="10" ry="8" fill="#E8A87C" stroke="#2B1A0F" stroke-width="2"/>
  <path d="M45 104 Q43 95 45 90" stroke="#E8A87C" stroke-width="5" fill="none" stroke-linecap="round"/>
  <path d="M45 104 Q43 95 45 90" stroke="#2B1A0F" stroke-width="1.5" fill="none" stroke-linecap="round"/>
  <path d="M51 103 Q50 93 51 88" stroke="#E8A87C" stroke-width="5" fill="none" stroke-linecap="round"/>
  <path d="M51 103 Q50 93 51 88" stroke="#2B1A0F" stroke-width="1.5" fill="none" stroke-linecap="round"/>
  <path d="M57 104 Q57 94 57 89" stroke="#E8A87C" stroke-width="5" fill="none" stroke-linecap="round"/>
  <path d="M57 104 Q57 94 57 89" stroke="#2B1A0F" stroke-width="1.5" fill="none" stroke-linecap="round"/>
  <!-- right hand -->
  <ellipse cx="148" cy="213" rx="9" ry="8" fill="#E8A87C" stroke="#2B1A0F" stroke-width="2"/>
  <!-- legs -->
  <path d="M80 240 Q78 265 78 288" stroke="#2B4A7A" stroke-width="18" fill="none" stroke-linecap="round"/>
  <path d="M80 240 Q78 265 78 288" stroke="#2B1A0F" stroke-width="2" fill="none" stroke-linecap="round"/>
  <path d="M120 240 Q122 265 122 288" stroke="#2B4A7A" stroke-width="18" fill="none" stroke-linecap="round"/>
  <path d="M120 240 Q122 265 122 288" stroke="#2B1A0F" stroke-width="2" fill="none" stroke-linecap="round"/>
  <ellipse cx="78" cy="292" rx="14" ry="8" fill="#2B1A0F"/>
  <ellipse cx="122" cy="292" rx="14" ry="8" fill="#2B1A0F"/>
  <!-- head -->
  <ellipse cx="100" cy="110" rx="42" ry="40" fill="#E8A87C" stroke="#2B1A0F" stroke-width="2.5"/>
  <ellipse cx="86" cy="118" rx="18" ry="14" fill="#C87A4A" opacity="0.3"/>
  <!-- cap -->
  <path d="M60 98 Q62 82 100 78 Q138 82 140 98 L138 102 Q100 92 62 102 Z" fill="#4A7BD0" stroke="#2B1A0F" stroke-width="2.5" stroke-linejoin="round"/>
  <path d="M56 105 Q58 95 100 92 Q100 108 58 108 Z" fill="#3A6AC0" stroke="#2B1A0F" stroke-width="2" stroke-linejoin="round"/>
  <!-- cap logo -->
  <rect x="88" y="81" width="24" height="12" rx="3" fill="#1A3A7A" stroke="#2B1A0F" stroke-width="1.5"/>
  <path d="M91 87 Q100 83 109 87" fill="none" stroke="#7FA8E8" stroke-width="1.5" stroke-linecap="round"/>
  <!-- hair -->
  <path d="M60 105 Q64 118 68 120" stroke="#F7B32B" stroke-width="3" fill="none" stroke-linecap="round"/>
  <path d="M140 105 Q136 118 132 120" stroke="#F7B32B" stroke-width="3" fill="none" stroke-linecap="round"/>
  <!-- ears -->
  <ellipse cx="58" cy="112" rx="7" ry="9" fill="#E8A87C" stroke="#2B1A0F" stroke-width="2"/>
  <ellipse cx="142" cy="112" rx="7" ry="9" fill="#E8A87C" stroke="#2B1A0F" stroke-width="2"/>
  <!-- glasses -->
  <rect x="68" y="108" width="26" height="19" rx="7" fill="#B8D4F0" stroke="#2B1A0F" stroke-width="3"/>
  <rect x="106" y="108" width="26" height="19" rx="7" fill="#B8D4F0" stroke="#2B1A0F" stroke-width="3"/>
  <line x1="94" y1="116" x2="106" y2="116" stroke="#2B1A0F" stroke-width="3" stroke-linecap="round"/>
  <line x1="68" y1="116" x2="59" y2="112" stroke="#2B1A0F" stroke-width="2.5" stroke-linecap="round"/>
  <line x1="132" y1="116" x2="141" y2="112" stroke="#2B1A0F" stroke-width="2.5" stroke-linecap="round"/>
  <ellipse cx="76" cy="112" rx="4" ry="3" fill="#FFFFFF" opacity="0.5"/>
  <ellipse cx="114" cy="112" rx="4" ry="3" fill="#FFFFFF" opacity="0.5"/>
  <!-- eyes -->
  <ellipse cx="81" cy="117" rx="7" ry="7" fill="white"/>
  <circle cx="83" cy="118" r="4.5" fill="#2B1A0F"/>
  <circle cx="84.5" cy="116.5" r="1.5" fill="white"/>
  <ellipse cx="119" cy="117" rx="7" ry="7" fill="white"/>
  <circle cx="121" cy="118" r="4.5" fill="#2B1A0F"/>
  <circle cx="122.5" cy="116.5" r="1.5" fill="white"/>
  <!-- eyebrows (happy) -->
  <path d="M70 107 Q81 103 89 106" fill="none" stroke="#2B1A0F" stroke-width="2.5" stroke-linecap="round"/>
  <path d="M111 106 Q119 103 130 107" fill="none" stroke="#2B1A0F" stroke-width="2.5" stroke-linecap="round"/>
  <!-- blush -->
  <ellipse cx="68" cy="126" rx="8" ry="5" fill="#D9486E" opacity="0.3"/>
  <ellipse cx="132" cy="126" rx="8" ry="5" fill="#D9486E" opacity="0.3"/>
  <!-- grin -->
  <path d="M82 130 Q100 142 118 130" fill="white" stroke="#2B1A0F" stroke-width="2" stroke-linejoin="round"/>
  <!-- motion lines + sparkle -->
  <path d="M65 85 L72 78" stroke="#F7B32B" stroke-width="2" stroke-linecap="round"/>
  <path d="M60 92 L64 83" stroke="#F7B32B" stroke-width="2" stroke-linecap="round"/>
  <path d="M72 78 L78 72" stroke="#F7B32B" stroke-width="2" stroke-linecap="round"/>
  <polygon points="38,-70 40.6,-62.5 47.5,-62.5 42.2,-57 44.3,-49.5 38,-53.7 31.7,-49.5 33.8,-57 28.5,-62.5 35.4,-62.5" fill="#F7B32B" stroke="#2B1A0F" stroke-width="1.5"/>
</svg>
